<mxfile host="app.diagrams.net" modified="2024-01-10T01:27:40.077Z" agent="Mozilla/5.0 (Windows NT 10.0; Win64; x64; rv:121.0) Gecko/20100101 Firefox/121.0" etag="Fv9D4T5oIbqCtZS8D0CK" version="22.1.17" type="device">
  <diagram name="Página-1" id="IiPdPqfwd_iDcYK5Jq2p">
    <mxGraphModel dx="1194" dy="716" grid="1" gridSize="10" guides="1" tooltips="1" connect="1" arrows="1" fold="1" page="1" pageScale="1" pageWidth="827" pageHeight="1169" math="0" shadow="0">
      <root>
        <mxCell id="0" />
        <mxCell id="1" parent="0" />
        <mxCell id="HDuJwo9p4HTDJCVhy_ew-1" value="BANCO DE DADOS" style="rounded=1;whiteSpace=wrap;html=1;strokeWidth=4;fillColor=#e1d5e7;strokeColor=#9673a6;fontStyle=1;fontSize=16;" vertex="1" parent="1">
          <mxGeometry x="50" y="120" width="190" height="80" as="geometry" />
        </mxCell>
        <mxCell id="HDuJwo9p4HTDJCVhy_ew-2" value="LINUX" style="rounded=1;whiteSpace=wrap;html=1;fillColor=#d5e8d4;strokeColor=#82b366;strokeWidth=5;fontSize=16;fontStyle=1" vertex="1" parent="1">
          <mxGeometry x="50" y="200" width="190" height="80" as="geometry" />
        </mxCell>
        <mxCell id="HDuJwo9p4HTDJCVhy_ew-3" value="LINUX" style="rounded=1;whiteSpace=wrap;html=1;fillColor=#d5e8d4;strokeColor=#82b366;strokeWidth=5;fontSize=16;fontStyle=1" vertex="1" parent="1">
          <mxGeometry x="360" y="200" width="190" height="80" as="geometry" />
        </mxCell>
        <mxCell id="HDuJwo9p4HTDJCVhy_ew-4" value="FIREWALL" style="rounded=1;whiteSpace=wrap;html=1;strokeWidth=4;fillColor=#e1d5e7;strokeColor=#9673a6;fontStyle=1;fontSize=16;" vertex="1" parent="1">
          <mxGeometry x="360" y="120" width="190" height="80" as="geometry" />
        </mxCell>
        <mxCell id="HDuJwo9p4HTDJCVhy_ew-5" value="WINDOWS" style="rounded=1;whiteSpace=wrap;html=1;fillColor=#d5e8d4;strokeColor=#82b366;strokeWidth=5;fontSize=16;fontStyle=1" vertex="1" parent="1">
          <mxGeometry x="650" y="200" width="190" height="80" as="geometry" />
        </mxCell>
        <mxCell id="HDuJwo9p4HTDJCVhy_ew-6" value="APLICAÇÂO" style="rounded=1;whiteSpace=wrap;html=1;strokeWidth=4;fillColor=#e1d5e7;strokeColor=#9673a6;fontStyle=1;fontSize=16;" vertex="1" parent="1">
          <mxGeometry x="650" y="120" width="190" height="80" as="geometry" />
        </mxCell>
        <mxCell id="HDuJwo9p4HTDJCVhy_ew-7" value="" style="rounded=1;whiteSpace=wrap;html=1;strokeWidth=4;fillColor=#b1ddf0;strokeColor=#10739e;" vertex="1" parent="1">
          <mxGeometry x="50" y="280" width="790" height="250" as="geometry" />
        </mxCell>
        <mxCell id="HDuJwo9p4HTDJCVhy_ew-8" value="" style="sketch=0;pointerEvents=1;shadow=0;dashed=0;html=1;strokeColor=none;fillColor=#005F4B;labelPosition=center;verticalLabelPosition=bottom;verticalAlign=top;align=center;outlineConnect=0;shape=mxgraph.veeam2.vmware_vswitch;" vertex="1" parent="1">
          <mxGeometry x="140" y="390" width="120" height="30" as="geometry" />
        </mxCell>
        <mxCell id="HDuJwo9p4HTDJCVhy_ew-10" value="" style="sketch=0;pointerEvents=1;shadow=0;dashed=0;html=1;strokeColor=none;fillColor=#005F4B;labelPosition=center;verticalLabelPosition=bottom;verticalAlign=top;align=center;outlineConnect=0;shape=mxgraph.veeam2.vmware_vswitch;" vertex="1" parent="1">
          <mxGeometry x="440" y="390" width="120" height="30" as="geometry" />
        </mxCell>
        <mxCell id="HDuJwo9p4HTDJCVhy_ew-11" value="VNIC" style="rounded=1;whiteSpace=wrap;html=1;fillColor=#fad7ac;strokeColor=#b46504;strokeWidth=4;fontStyle=1;fontSize=16;" vertex="1" parent="1">
          <mxGeometry x="110" y="270" width="50" height="40" as="geometry" />
        </mxCell>
        <mxCell id="HDuJwo9p4HTDJCVhy_ew-12" value="VNIC" style="rounded=1;whiteSpace=wrap;html=1;fillColor=#fad7ac;strokeColor=#b46504;strokeWidth=4;fontStyle=1;fontSize=16;" vertex="1" parent="1">
          <mxGeometry x="175" y="270" width="50" height="40" as="geometry" />
        </mxCell>
        <mxCell id="HDuJwo9p4HTDJCVhy_ew-13" value="VNIC" style="rounded=1;whiteSpace=wrap;html=1;fillColor=#fad7ac;strokeColor=#b46504;strokeWidth=4;fontStyle=1;fontSize=16;" vertex="1" parent="1">
          <mxGeometry x="430" y="270" width="50" height="40" as="geometry" />
        </mxCell>
        <mxCell id="HDuJwo9p4HTDJCVhy_ew-14" value="VNIC" style="rounded=1;whiteSpace=wrap;html=1;fillColor=#fad7ac;strokeColor=#b46504;strokeWidth=4;fontStyle=1;fontSize=16;" vertex="1" parent="1">
          <mxGeometry x="720" y="270" width="50" height="40" as="geometry" />
        </mxCell>
        <mxCell id="HDuJwo9p4HTDJCVhy_ew-16" value="" style="endArrow=classic;html=1;rounded=0;fontStyle=0;strokeWidth=4;" edge="1" parent="1" target="HDuJwo9p4HTDJCVhy_ew-8">
          <mxGeometry width="50" height="50" relative="1" as="geometry">
            <mxPoint x="120" y="310" as="sourcePoint" />
            <mxPoint x="210" y="350" as="targetPoint" />
          </mxGeometry>
        </mxCell>
        <mxCell id="HDuJwo9p4HTDJCVhy_ew-17" value="" style="endArrow=classic;html=1;rounded=0;fontStyle=0;strokeWidth=4;" edge="1" parent="1">
          <mxGeometry width="50" height="50" relative="1" as="geometry">
            <mxPoint x="206.5" y="310" as="sourcePoint" />
            <mxPoint x="440" y="390" as="targetPoint" />
            <Array as="points">
              <mxPoint x="250" y="350" />
              <mxPoint x="410" y="350" />
            </Array>
          </mxGeometry>
        </mxCell>
        <mxCell id="HDuJwo9p4HTDJCVhy_ew-18" value="" style="endArrow=classic;html=1;rounded=0;strokeWidth=4;" edge="1" parent="1">
          <mxGeometry width="50" height="50" relative="1" as="geometry">
            <mxPoint x="460" y="310" as="sourcePoint" />
            <mxPoint x="500" y="390" as="targetPoint" />
          </mxGeometry>
        </mxCell>
        <mxCell id="HDuJwo9p4HTDJCVhy_ew-19" value="" style="endArrow=classic;html=1;rounded=0;strokeWidth=4;" edge="1" parent="1" target="HDuJwo9p4HTDJCVhy_ew-10">
          <mxGeometry width="50" height="50" relative="1" as="geometry">
            <mxPoint x="750" y="310" as="sourcePoint" />
            <mxPoint x="560" y="380" as="targetPoint" />
            <Array as="points">
              <mxPoint x="720" y="340" />
              <mxPoint x="630" y="340" />
            </Array>
          </mxGeometry>
        </mxCell>
        <mxCell id="HDuJwo9p4HTDJCVhy_ew-20" value="vSWITCH" style="text;html=1;strokeColor=none;fillColor=none;align=center;verticalAlign=middle;whiteSpace=wrap;rounded=0;fontStyle=1;fontSize=16;" vertex="1" parent="1">
          <mxGeometry x="165" y="440" width="60" height="30" as="geometry" />
        </mxCell>
        <mxCell id="HDuJwo9p4HTDJCVhy_ew-21" value="vSWITCH" style="text;html=1;strokeColor=none;fillColor=none;align=center;verticalAlign=middle;whiteSpace=wrap;rounded=0;fontStyle=1;fontSize=16;" vertex="1" parent="1">
          <mxGeometry x="470" y="440" width="60" height="30" as="geometry" />
        </mxCell>
        <mxCell id="HDuJwo9p4HTDJCVhy_ew-22" value="HYPERVISOR TIPO 01" style="text;html=1;strokeColor=none;fillColor=none;align=center;verticalAlign=middle;whiteSpace=wrap;rounded=0;fontStyle=1;fontSize=16;" vertex="1" parent="1">
          <mxGeometry x="640" y="480" width="180" height="30" as="geometry" />
        </mxCell>
        <mxCell id="HDuJwo9p4HTDJCVhy_ew-23" value="SERVER" style="rounded=1;whiteSpace=wrap;html=1;fillColor=#fff2cc;strokeColor=#d6b656;strokeWidth=4;fontStyle=1;fontSize=15;" vertex="1" parent="1">
          <mxGeometry x="50" y="530" width="780" height="70" as="geometry" />
        </mxCell>
        <mxCell id="HDuJwo9p4HTDJCVhy_ew-24" value="PNIC" style="rounded=1;whiteSpace=wrap;html=1;fillColor=#fad7ac;strokeColor=#b46504;strokeWidth=4;fontStyle=1;fontSize=16;" vertex="1" parent="1">
          <mxGeometry x="115" y="582" width="50" height="40" as="geometry" />
        </mxCell>
        <mxCell id="HDuJwo9p4HTDJCVhy_ew-25" value="" style="endArrow=classic;html=1;rounded=0;fontSize=14;strokeWidth=4;" edge="1" parent="1">
          <mxGeometry width="50" height="50" relative="1" as="geometry">
            <mxPoint x="140" y="623" as="sourcePoint" />
            <mxPoint x="140" y="711" as="targetPoint" />
          </mxGeometry>
        </mxCell>
        <mxCell id="HDuJwo9p4HTDJCVhy_ew-26" value="PHISCAL NETWORK" style="text;html=1;strokeColor=none;fillColor=none;align=center;verticalAlign=middle;whiteSpace=wrap;rounded=0;fontStyle=1;fontSize=16;" vertex="1" parent="1">
          <mxGeometry x="58.25" y="720" width="163.5" height="30" as="geometry" />
        </mxCell>
      </root>
    </mxGraphModel>
  </diagram>
</mxfile>
